<svg xmlns="http://www.w3.org/2000/svg" width="42" height="40" viewBox="0 0 42 40">
    <g fill="none" fill-rule="evenodd">
        <g fill="#FFF" fill-rule="nonzero">
            <g>
                <path d="M20.304.391L1.348 6.826c-.696.217-1.13.87-1.13 1.609v23.13c0 .74.478 1.392 1.13 1.609l18.956 6.435c.348.13.74.13 1.087 0l18.957-6.435c.695-.217 1.13-.87 1.13-1.609V8.435c0-.74-.478-1.392-1.13-1.609L21.435.391c-.392-.13-.74-.13-1.13 0zm14.261 8.044L20.87 13.087 7.174 8.435 20.87 3.783l13.695 4.652zM3.61 10.783l15.565 5.304v19.565L3.609 30.348V10.783zm18.956 24.87V16.086l15.565-5.304v19.565l-15.565 5.304z" transform="translate(-51 -282) translate(51 282)"/>
            </g>
        </g>
    </g>
</svg>
