<?xml version="1.0" encoding="UTF-8"?>
<svg width="59px" height="18px" viewBox="0 0 59 18" version="1.1" xmlns="http://www.w3.org/2000/svg" xmlns:xlink="http://www.w3.org/1999/xlink">
    <title>999DE8F2-6595-4769-8BC1-A5F3570A9BDF</title>
    <g id="Page-1" stroke="none" stroke-width="1" fill="none" fill-rule="evenodd">
        <g id="Order-Page" transform="translate(-1106.000000, -835.000000)" fill="#16216A">
            <g id="Rectangle-+-Group-3-+-Group-2-Mask" transform="translate(837.000000, 573.000000)">
                <g id="Group-3" transform="translate(44.000000, 256.000000)">
                    <path d="M263.817811,6 C265.626325,6 267.076333,6.38052754 268,6.73429015 L268,6.73429015 L267.367477,10.5128006 L266.947317,10.3114818 C266.088729,9.95888285 264.981243,9.61908456 263.457022,9.64352211 C261.631382,9.64352211 260.784211,10.4197052 260.784211,11.1435221 C260.773936,11.9604344 261.774099,12.4980605 263.405643,13.3044996 C266.097863,14.5508146 267.338933,16.0601241 267.321807,18.0418929 C267.285272,21.6644686 264.102104,24 259.197195,24 C257.104388,23.9790535 255.088077,23.5577967 254,23.0713732 L254,23.0713732 L254.655358,19.1671839 L255.255913,19.4429791 C256.789268,20.0934833 257.780297,20.3576416 259.645898,20.3576416 C260.988583,20.3576416 262.427173,19.825834 262.440874,18.6563227 C262.447725,17.8929403 261.835753,17.348332 260.020388,16.4941815 C258.249551,15.6598138 255.906704,14.2598914 255.931822,11.7556245 C255.960365,8.36462374 259.208612,6 263.817811,6 Z M280.166746,6 L284,24 L279.606065,24 C279.606065,24 279.171652,21.9314904 279.030324,21.3016827 L279.030324,21.3016827 L278.347365,21.3010186 C278.28299,21.3009358 278.215421,21.3008465 278.145005,21.3007513 L277.691099,21.3001152 C277.449822,21.2997674 277.189132,21.2993793 276.918356,21.2989695 L276.366117,21.2981264 C275.899315,21.2974089 275.421765,21.2966655 274.976642,21.2959824 L274.460822,21.2951973 C274.378367,21.2950731 274.2979,21.2949527 274.219767,21.2948368 L273.781728,21.2942006 C273.71431,21.2941054 273.649915,21.2940161 273.58889,21.2939333 L272.969404,21.2932692 C272.782896,21.78125 271.973152,24 271.973152,24 L271.973152,24 L267,24 L274.030528,7.49399038 C274.528654,6.32211538 275.376627,6 276.510733,6 L276.510733,6 L280.166746,6 Z M233.03063,6 C234.103073,6.04170756 234.971184,6.38640824 235.269824,7.55053974 L235.269824,7.55053974 L237,16 C236.283394,14.1373813 235.139877,12.406425 233.592453,10.9131723 C235.042456,12.3908807 236.167649,14.1341258 236.673349,15.7964176 L236.673349,15.7964176 L237.178066,18.2939447 L241.896226,6 L247,6 L239.412736,23.9927817 L234.313679,24 L230.021381,8.30534045 C228.543255,7.49462737 226.866665,6.84086428 225,6.38272816 L225,6.38272816 L225.059244,6 Z M254,6 L250.916591,24 L246,24 L249.074977,6 L254,6 Z M277.556604,11 L277.883255,12.6092527 C277.883255,12.6092527 278.143848,13.8666674 278.417151,15.1857423 L278.513735,15.6519114 C278.722395,16.6590542 278.921433,17.61999 279,18 L275,18 C275.162404,17.5628114 275.509504,16.6195226 275.864432,15.6534931 L276.028156,15.2077788 C276.489967,13.9503201 276.918632,12.7811388 276.918632,12.7811388 C276.891509,12.8322064 277.314858,11.7 277.556604,11 Z" id="visaLogo"></path>
                </g>
            </g>
        </g>
    </g>
</svg>